<?xml version="1.0" encoding="UTF-8"?>
<!DOCTYPE svg PUBLIC "-//W3C//DTD SVG 1.1//EN" "http://www.w3.org/Graphics/SVG/1.1/DTD/svg11.dtd">
<svg xmlns="http://www.w3.org/2000/svg" version="1.1" width="400px" height="400px" style="shape-rendering:geometricPrecision; text-rendering:geometricPrecision; image-rendering:optimizeQuality; fill-rule:evenodd; clip-rule:evenodd" xmlns:xlink="http://www.w3.org/1999/xlink">
<g><path style="opacity:1" fill="#69005e" d="M -0.5,-0.5 C 132.833,-0.5 266.167,-0.5 399.5,-0.5C 399.5,132.833 399.5,266.167 399.5,399.5C 266.167,399.5 132.833,399.5 -0.5,399.5C -0.5,266.167 -0.5,132.833 -0.5,-0.5 Z"/></g>
<g><path style="opacity:1" fill="#740151" d="M 265.5,85.5 C 250.5,85.5 235.5,85.5 220.5,85.5C 220.707,88.2406 221.707,90.5739 223.5,92.5C 223.5,93.1667 223.5,93.8333 223.5,94.5C 223.5,94.8333 223.5,95.1667 223.5,95.5C 221.833,95.5 220.167,95.5 218.5,95.5C 218.334,91.4862 218.501,87.4862 219,83.5C 219.725,82.9415 220.558,82.6082 221.5,82.5C 236.229,84.104 250.896,85.104 265.5,85.5 Z"/></g>
<g><path style="opacity:1" fill="#e14d84" d="M 265.5,85.5 C 266.167,85.5 266.5,85.8333 266.5,86.5C 252.167,86.5 237.833,86.5 223.5,86.5C 223.5,88.5 223.5,90.5 223.5,92.5C 221.707,90.5739 220.707,88.2406 220.5,85.5C 235.5,85.5 250.5,85.5 265.5,85.5 Z"/></g>
<g><path style="opacity:1" fill="#6c005b" d="M 154.5,85.5 C 140.167,85.5 125.833,85.5 111.5,85.5C 111.5,161.5 111.5,237.5 111.5,313.5C 112.5,313.5 113.5,313.5 114.5,313.5C 114.5,313.833 114.5,314.167 114.5,314.5C 122.807,315.239 133.141,315.905 145.5,316.5C 145.291,317.086 144.957,317.586 144.5,318C 132.967,318.198 121.467,318.698 110,319.5C 109.055,319.095 108.388,318.428 108,317.5C 107.489,315.122 106.822,312.788 106,310.5C 106.667,236.5 106.667,162.5 106,88.5C 106.822,86.2115 107.489,83.8782 108,81.5C 108.388,80.572 109.055,79.9054 110,79.5C 123.846,80.1582 137.679,80.8248 151.5,81.5C 154.166,80.2622 156.832,80.2622 159.5,81.5C 156.484,83.0842 153.484,83.7508 150.5,83.5C 151.949,84.1719 153.282,84.8386 154.5,85.5 Z"/></g>
<g><path style="opacity:1" fill="#fe4f6e" d="M 266.5,86.5 C 267.35,90.2009 267.35,93.8675 266.5,97.5C 266.76,99.1871 267.427,100.687 268.5,102C 267.399,104.292 268.232,105.792 271,106.5C 271.333,106.167 271.667,105.833 272,105.5C 272.353,108.539 273.52,111.205 275.5,113.5C 275.267,114.932 274.6,115.432 273.5,115C 272.809,113.933 272.309,112.766 272,111.5C 271.503,115.524 271.669,119.524 272.5,123.5C 273.5,123.5 274.5,123.5 275.5,123.5C 275.201,121.396 275.534,119.396 276.5,117.5C 277.183,117.863 277.85,118.196 278.5,118.5C 280.435,121.371 282.101,124.371 283.5,127.5C 285.457,134.069 287.79,140.403 290.5,146.5C 291.301,150.235 292.301,153.901 293.5,157.5C 293.544,162.471 294.544,167.138 296.5,171.5C 295.5,171.5 294.5,171.5 293.5,171.5C 293.496,169.158 292.663,167.158 291,165.5C 290.318,169.069 290.818,172.402 292.5,175.5C 291.5,175.5 290.5,175.5 289.5,175.5C 289.998,178.487 290.498,181.487 291,184.5C 292.507,186.008 294.173,187.341 296,188.5C 296.483,189.448 296.649,190.448 296.5,191.5C 298.833,191.5 301.167,191.5 303.5,191.5C 303.5,196.833 303.5,202.167 303.5,207.5C 301.167,207.5 298.833,207.5 296.5,207.5C 296.649,208.552 296.483,209.552 296,210.5C 294.173,211.659 292.507,212.992 291,214.5C 290.498,217.513 289.998,220.513 289.5,223.5C 290.5,223.5 291.5,223.5 292.5,223.5C 292.105,226.523 293.105,227.523 295.5,226.5C 295.833,227.5 296.167,228.5 296.5,229.5C 294.687,233.733 293.02,238.066 291.5,242.5C 290.773,240.157 289.773,237.49 288.5,234.5C 289.152,241.247 289.152,248.247 288.5,255.5C 285.782,264.309 282.448,272.976 278.5,281.5C 277.542,281.953 276.708,282.619 276,283.5C 273.802,288.666 272.302,294 271.5,299.5C 271.5,300.833 271.5,302.167 271.5,303.5C 270.833,303.5 270.167,303.5 269.5,303.5C 267.149,305.841 266.149,308.841 266.5,312.5C 251.99,312.829 237.657,312.496 223.5,311.5C 237.504,311.667 251.504,311.5 265.5,311C 264.975,310.308 264.308,309.808 263.5,309.5C 250.231,309.671 236.898,309.671 223.5,309.5C 223.5,308.167 223.5,306.833 223.5,305.5C 223.5,305.167 223.5,304.833 223.5,304.5C 226.5,304.5 229.5,304.5 232.5,304.5C 232.785,302.712 232.452,301.045 231.5,299.5C 229.889,300.32 229.222,301.654 229.5,303.5C 228.022,303.762 226.689,303.429 225.5,302.5C 227.006,298.155 229.006,294.155 231.5,290.5C 232.314,292.766 232.814,295.1 233,297.5C 234,298.833 235,298.833 236,297.5C 236.459,293.231 235.292,289.398 232.5,286C 234.59,281.318 236.257,276.485 237.5,271.5C 240.5,271.5 243.5,271.5 246.5,271.5C 246.808,267.991 248.808,266.324 252.5,266.5C 253.564,258.869 253.731,251.202 253,243.5C 252.586,243.957 252.086,244.291 251.5,244.5C 250.526,242.257 250.192,239.924 250.5,237.5C 251.458,237.047 252.292,236.381 253,235.5C 253.275,232.588 254.109,229.921 255.5,227.5C 255.5,225.5 255.5,223.5 255.5,221.5C 231.337,220.668 207.003,220.168 182.5,220C 204.025,218.75 225.692,217.917 247.5,217.5C 258.167,216.833 258.167,216.167 247.5,215.5C 228.845,216.389 210.178,216.722 191.5,216.5C 191.5,215.5 191.5,214.5 191.5,213.5C 212.843,213.611 234.176,213.278 255.5,212.5C 255.5,211.5 255.5,210.5 255.5,209.5C 242.188,210.388 228.855,211.055 215.5,211.5C 207.258,211.493 199.091,211.159 191,210.5C 189.491,211.09 187.991,211.756 186.5,212.5C 187.5,213.167 188.5,213.833 189.5,214.5C 187.392,215.944 185.059,216.61 182.5,216.5C 182.832,204.149 182.499,191.815 181.5,179.5C 180.264,180.246 178.93,180.579 177.5,180.5C 177.5,179.5 177.5,178.5 177.5,177.5C 178.5,177.5 179.5,177.5 180.5,177.5C 205.337,178.167 230.337,178.833 255.5,179.5C 232.5,180.167 209.5,180.833 186.5,181.5C 206.832,182.267 227.165,182.934 247.5,183.5C 250.956,183.32 254.289,182.653 257.5,181.5C 258.554,181.68 259.554,182.013 260.5,182.5C 261.598,180.368 262.598,178.202 263.5,176C 260.854,175.503 258.187,175.336 255.5,175.5C 255.66,173.801 255.494,172.134 255,170.5C 251.763,165.951 249.596,160.951 248.5,155.5C 246.85,149.902 245.35,144.235 244,138.5C 243.578,136.574 242.411,135.574 240.5,135.5C 239.833,135.5 239.5,135.167 239.5,134.5C 239.5,134.167 239.5,133.833 239.5,133.5C 237.61,126.546 235.277,119.712 232.5,113C 233.76,111.194 234.927,109.361 236,107.5C 236.792,103.196 237.958,99.0292 239.5,95C 234.177,94.5006 228.844,94.334 223.5,94.5C 223.5,93.8333 223.5,93.1667 223.5,92.5C 223.5,90.5 223.5,88.5 223.5,86.5C 237.833,86.5 252.167,86.5 266.5,86.5 Z"/></g>
<g><path style="opacity:1" fill="#e84a76" d="M 154.5,85.5 C 155.167,85.5 155.5,85.8333 155.5,86.5C 155.5,161.833 155.5,237.167 155.5,312.5C 155.5,312.833 155.5,313.167 155.5,313.5C 141.833,313.5 128.167,313.5 114.5,313.5C 113.5,313.5 112.5,313.5 111.5,313.5C 111.5,237.5 111.5,161.5 111.5,85.5C 125.833,85.5 140.167,85.5 154.5,85.5 Z"/></g>
<g><path style="opacity:1" fill="#fe4f68" d="M 127.5,86.5 C 136.5,86.5 145.5,86.5 154.5,86.5C 154.5,159.167 154.5,231.833 154.5,304.5C 153.883,304.611 153.383,304.944 153,305.5C 152.5,234.501 152.333,163.501 152.5,92.5C 150.833,92.5 149.167,92.5 147.5,92.5C 147.5,91.1667 147.5,89.8333 147.5,88.5C 137.152,88.7012 126.819,88.8679 116.5,89C 116.167,88.6667 115.833,88.3333 115.5,88C 119.688,87.8238 123.688,87.3238 127.5,86.5 Z"/></g>
<g><path style="opacity:1" fill="#fe4f6f" d="M 127.5,86.5 C 123.688,87.3238 119.688,87.8238 115.5,88C 115.833,88.3333 116.167,88.6667 116.5,89C 126.819,88.8679 137.152,88.7012 147.5,88.5C 147.5,89.8333 147.5,91.1667 147.5,92.5C 149.167,92.5 150.833,92.5 152.5,92.5C 152.333,163.501 152.5,234.501 153,305.5C 153.383,304.944 153.883,304.611 154.5,304.5C 154.5,307.167 154.5,309.833 154.5,312.5C 141.15,312.833 127.817,312.499 114.5,311.5C 114.19,238.274 114.523,164.941 115.5,91.5C 115.288,89.6159 114.288,88.2826 112.5,87.5C 117.456,86.5059 122.456,86.1725 127.5,86.5 Z"/></g>
<g><path style="opacity:1" fill="#fe4f68" d="M 115.5,91.5 C 125.158,90.9711 134.825,90.6378 144.5,90.5C 144.231,92.4286 144.731,94.0953 146,95.5C 146.667,164.833 146.667,234.167 146,303.5C 145.798,305.256 145.298,306.922 144.5,308.5C 135.179,307.916 125.846,307.582 116.5,307.5C 125.891,306.603 135.057,305.27 144,303.5C 144.824,233.138 144.657,162.805 143.5,92.5C 134.422,92.4635 125.422,92.9635 116.5,94C 115.748,93.3292 115.414,92.4959 115.5,91.5 Z"/></g>
<g><path style="opacity:1" fill="#7f0552" d="M 155.5,86.5 C 159.554,86.2105 160.054,86.8771 157,88.5C 156.503,90.8098 156.337,93.1432 156.5,95.5C 156.5,164.833 156.5,234.167 156.5,303.5C 156.81,306.713 156.477,309.713 155.5,312.5C 155.5,237.167 155.5,161.833 155.5,86.5 Z"/></g>
<g><path style="opacity:1" fill="#640168" d="M 156.5,95.5 C 157.833,129.827 158.5,164.494 158.5,199.5C 158.5,234.506 157.833,269.173 156.5,303.5C 156.5,234.167 156.5,164.833 156.5,95.5 Z"/></g>
<g><path style="opacity:1" fill="#f55077" d="M 266.5,86.5 C 267.899,89.6293 269.565,92.6293 271.5,95.5C 272.691,101.528 274.691,107.195 277.5,112.5C 278.15,114.435 278.483,116.435 278.5,118.5C 277.85,118.196 277.183,117.863 276.5,117.5C 275.534,119.396 275.201,121.396 275.5,123.5C 274.5,123.5 273.5,123.5 272.5,123.5C 271.669,119.524 271.503,115.524 272,111.5C 272.309,112.766 272.809,113.933 273.5,115C 274.6,115.432 275.267,114.932 275.5,113.5C 273.52,111.205 272.353,108.539 272,105.5C 271.667,105.833 271.333,106.167 271,106.5C 268.232,105.792 267.399,104.292 268.5,102C 267.427,100.687 266.76,99.1871 266.5,97.5C 267.35,93.8675 267.35,90.2009 266.5,86.5 Z"/></g>
<g><path style="opacity:1" fill="#f35077" d="M 223.5,95.5 C 223.5,95.1667 223.5,94.8333 223.5,94.5C 228.844,94.334 234.177,94.5006 239.5,95C 237.958,99.0292 236.792,103.196 236,107.5C 234.927,109.361 233.76,111.194 232.5,113C 235.277,119.712 237.61,126.546 239.5,133.5C 236.371,126.128 233.037,118.795 229.5,111.5C 228.793,107.752 227.793,104.086 226.5,100.5C 225.313,98.9275 224.313,97.2608 223.5,95.5 Z"/></g>
<g><path style="opacity:1" fill="#fc506b" d="M 226.5,100.5 C 226.5,98.8333 226.5,97.1667 226.5,95.5C 227.5,95.5 228.5,95.5 229.5,95.5C 229.281,96.675 229.614,97.675 230.5,98.5C 231.695,96.703 233.362,95.703 235.5,95.5C 233.436,99.5303 232.103,103.864 231.5,108.5C 229.808,105.769 228.142,103.102 226.5,100.5 Z"/></g>
<g><path style="opacity:1" fill="#7e044d" d="M 271.5,95.5 C 272.833,95.5 274.167,95.5 275.5,95.5C 275.312,101.288 275.978,106.955 277.5,112.5C 274.691,107.195 272.691,101.528 271.5,95.5 Z"/></g>
<g><path style="opacity:1" fill="#740256" d="M 229.5,111.5 C 233.037,118.795 236.371,126.128 239.5,133.5C 239.5,133.833 239.5,134.167 239.5,134.5C 237.629,134.141 236.129,133.141 235,131.5C 234.814,129.1 234.314,126.766 233.5,124.5C 232.614,125.325 232.281,126.325 232.5,127.5C 231.167,127.5 229.833,127.5 228.5,127.5C 228.338,125.473 228.505,123.473 229,121.5C 230.471,123.872 231.637,123.872 232.5,121.5C 230.909,118.325 229.909,114.991 229.5,111.5 Z"/></g>
<g><path style="opacity:1" fill="#760355" d="M 283.5,127.5 C 285.008,129.985 286.341,132.652 287.5,135.5C 292.712,138.013 293.712,141.679 290.5,146.5C 287.79,140.403 285.457,134.069 283.5,127.5 Z"/></g>
<g><path style="opacity:1" fill="#ea4f80" d="M 240.5,135.5 C 242.411,135.574 243.578,136.574 244,138.5C 245.35,144.235 246.85,149.902 248.5,155.5C 245.267,149.148 242.6,142.482 240.5,135.5 Z"/></g>
<g><path style="opacity:1" fill="#7b0046" d="M 255.5,176.5 C 230.672,177.498 205.672,177.831 180.5,177.5C 179.5,177.5 178.5,177.5 177.5,177.5C 177.5,178.5 177.5,179.5 177.5,180.5C 177.5,194.167 177.5,207.833 177.5,221.5C 176.504,206.676 176.171,191.676 176.5,176.5C 202.833,176.5 229.167,176.5 255.5,176.5 Z"/></g>
<g><path style="opacity:1" fill="#f85277" d="M 255.5,175.5 C 258.187,175.336 260.854,175.503 263.5,176C 262.598,178.202 261.598,180.368 260.5,182.5C 259.554,182.013 258.554,181.68 257.5,181.5C 254.289,182.653 250.956,183.32 247.5,183.5C 227.165,182.934 206.832,182.267 186.5,181.5C 209.5,180.833 232.5,180.167 255.5,179.5C 230.337,178.833 205.337,178.167 180.5,177.5C 205.672,177.831 230.672,177.498 255.5,176.5C 255.5,176.167 255.5,175.833 255.5,175.5 Z"/></g>
<g><path style="opacity:1" fill="#7d014b" d="M 303.5,182.5 C 307.952,184.677 309.618,188.344 308.5,193.5C 306.656,189.99 304.989,186.323 303.5,182.5 Z"/></g>
<g><path style="opacity:1" fill="#f75076" d="M 255.5,221.5 C 229.5,221.5 203.5,221.5 177.5,221.5C 177.5,207.833 177.5,194.167 177.5,180.5C 178.93,180.579 180.264,180.246 181.5,179.5C 182.499,191.815 182.832,204.149 182.5,216.5C 185.059,216.61 187.392,215.944 189.5,214.5C 188.5,213.833 187.5,213.167 186.5,212.5C 187.991,211.756 189.491,211.09 191,210.5C 199.091,211.159 207.258,211.493 215.5,211.5C 228.855,211.055 242.188,210.388 255.5,209.5C 255.5,210.5 255.5,211.5 255.5,212.5C 234.176,213.278 212.843,213.611 191.5,213.5C 191.5,214.5 191.5,215.5 191.5,216.5C 210.178,216.722 228.845,216.389 247.5,215.5C 258.167,216.167 258.167,216.833 247.5,217.5C 225.692,217.917 204.025,218.75 182.5,220C 207.003,220.168 231.337,220.668 255.5,221.5 Z"/></g>
<g><path style="opacity:1" fill="#710155" d="M 299.5,229.5 C 299.5,228.167 299.5,226.833 299.5,225.5C 301.205,222.739 302.538,219.739 303.5,216.5C 305.237,212.121 307.07,207.788 309,203.5C 309.634,200.445 309.468,197.445 308.5,194.5C 309.117,194.611 309.617,194.944 310,195.5C 310.118,198.371 310.784,201.038 312,203.5C 312.717,199.955 312.55,196.455 311.5,193C 311.833,192.5 312.167,192 312.5,191.5C 316.127,196.632 316.46,201.965 313.5,207.5C 311.857,207.52 310.524,206.853 309.5,205.5C 308.833,209.167 308.167,212.833 307.5,216.5C 306.5,217.167 305.5,217.833 304.5,218.5C 303.595,222.635 301.928,226.302 299.5,229.5 Z"/></g>
<g><path style="opacity:1" fill="#f85072" d="M 293.5,157.5 C 297.204,165.598 300.538,173.931 303.5,182.5C 304.989,186.323 306.656,189.99 308.5,193.5C 308.5,193.833 308.5,194.167 308.5,194.5C 309.468,197.445 309.634,200.445 309,203.5C 307.07,207.788 305.237,212.121 303.5,216.5C 302.417,216.539 301.417,216.873 300.5,217.5C 299.52,220.086 299.187,222.753 299.5,225.5C 299.5,226.833 299.5,228.167 299.5,229.5C 297.271,232.354 295.938,235.687 295.5,239.5C 293.072,243.099 291.406,247.099 290.5,251.5C 289.833,252.833 289.167,254.167 288.5,255.5C 289.152,248.247 289.152,241.247 288.5,234.5C 289.773,237.49 290.773,240.157 291.5,242.5C 293.02,238.066 294.687,233.733 296.5,229.5C 296.167,228.5 295.833,227.5 295.5,226.5C 293.105,227.523 292.105,226.523 292.5,223.5C 291.5,223.5 290.5,223.5 289.5,223.5C 289.998,220.513 290.498,217.513 291,214.5C 292.507,212.992 294.173,211.659 296,210.5C 296.483,209.552 296.649,208.552 296.5,207.5C 298.833,207.5 301.167,207.5 303.5,207.5C 303.5,202.167 303.5,196.833 303.5,191.5C 301.167,191.5 298.833,191.5 296.5,191.5C 296.649,190.448 296.483,189.448 296,188.5C 294.173,187.341 292.507,186.008 291,184.5C 290.498,181.487 289.998,178.487 289.5,175.5C 290.5,175.5 291.5,175.5 292.5,175.5C 290.818,172.402 290.318,169.069 291,165.5C 292.663,167.158 293.496,169.158 293.5,171.5C 294.5,171.5 295.5,171.5 296.5,171.5C 294.544,167.138 293.544,162.471 293.5,157.5 Z"/></g>
<g><path style="opacity:1" fill="#ea5181" d="M 303.5,216.5 C 302.538,219.739 301.205,222.739 299.5,225.5C 299.187,222.753 299.52,220.086 300.5,217.5C 301.417,216.873 302.417,216.539 303.5,216.5 Z"/></g>
<g><path style="opacity:1" fill="#db4877" d="M 255.5,227.5 C 254.109,229.921 253.275,232.588 253,235.5C 252.292,236.381 251.458,237.047 250.5,237.5C 250.833,236.167 251.167,234.833 251.5,233.5C 251.929,230.853 253.262,228.853 255.5,227.5 Z"/></g>
<g><path style="opacity:1" fill="#880a4b" d="M 295.5,239.5 C 294.444,243.168 293.278,246.835 292,250.5C 291.617,251.056 291.117,251.389 290.5,251.5C 291.406,247.099 293.072,243.099 295.5,239.5 Z"/></g>
<g><path style="opacity:1" fill="#8a0955" d="M 251.5,233.5 C 251.167,234.833 250.833,236.167 250.5,237.5C 249.715,240.404 248.381,243.07 246.5,245.5C 247.021,240.913 248.688,236.913 251.5,233.5 Z"/></g>
<g><path style="opacity:1" fill="#f94f73" d="M 250.5,237.5 C 250.192,239.924 250.526,242.257 251.5,244.5C 252.086,244.291 252.586,243.957 253,243.5C 253.731,251.202 253.564,258.869 252.5,266.5C 248.808,266.324 246.808,267.991 246.5,271.5C 243.5,271.5 240.5,271.5 237.5,271.5C 236.257,276.485 234.59,281.318 232.5,286C 235.292,289.398 236.459,293.231 236,297.5C 235,298.833 234,298.833 233,297.5C 232.814,295.1 232.314,292.766 231.5,290.5C 229.006,294.155 227.006,298.155 225.5,302.5C 226.689,303.429 228.022,303.762 229.5,303.5C 229.222,301.654 229.889,300.32 231.5,299.5C 232.452,301.045 232.785,302.712 232.5,304.5C 229.5,304.5 226.5,304.5 223.5,304.5C 225.837,297.827 228.171,291.161 230.5,284.5C 233.954,278.58 236.621,272.247 238.5,265.5C 239.338,265.158 239.672,264.492 239.5,263.5C 239.833,263.5 240.167,263.5 240.5,263.5C 242.411,263.426 243.578,262.426 244,260.5C 245.143,256.206 245.977,251.873 246.5,247.5C 246.5,246.833 246.5,246.167 246.5,245.5C 248.381,243.07 249.715,240.404 250.5,237.5 Z"/></g>
<g><path style="opacity:1" fill="#770254" d="M 245.5,247.5 C 243.816,252.883 242.149,258.217 240.5,263.5C 240.167,263.5 239.833,263.5 239.5,263.5C 239.411,260.275 240.077,257.275 241.5,254.5C 240.833,252.5 240.167,250.5 239.5,248.5C 239.833,247.5 240.167,246.5 240.5,245.5C 241.166,249.688 242.833,250.355 245.5,247.5 Z"/></g>
<g><path style="opacity:1" fill="#ec517e" d="M 245.5,247.5 C 245.833,247.5 246.167,247.5 246.5,247.5C 245.977,251.873 245.143,256.206 244,260.5C 243.578,262.426 242.411,263.426 240.5,263.5C 242.149,258.217 243.816,252.883 245.5,247.5 Z"/></g>
<g><path style="opacity:1" fill="#780350" d="M 238.5,265.5 C 236.621,272.247 233.954,278.58 230.5,284.5C 232.741,278.677 234.408,272.677 235.5,266.5C 236.417,265.873 237.417,265.539 238.5,265.5 Z"/></g>
<g><path style="opacity:1" fill="#ea527e" d="M 278.5,281.5 C 276.68,287.79 274.346,293.79 271.5,299.5C 272.302,294 273.802,288.666 276,283.5C 276.708,282.619 277.542,281.953 278.5,281.5 Z"/></g>
<g><path style="opacity:1" fill="#870d51" d="M 269.5,303.5 C 270.167,303.5 270.833,303.5 271.5,303.5C 271.523,305.6 270.856,307.433 269.5,309C 270.881,311.146 270.214,312.313 267.5,312.5C 268.323,309.539 268.99,306.539 269.5,303.5 Z"/></g>
<g><path style="opacity:1" fill="#e44c85" d="M 269.5,303.5 C 268.99,306.539 268.323,309.539 267.5,312.5C 267.158,313.338 266.492,313.672 265.5,313.5C 250.5,313.5 235.5,313.5 220.5,313.5C 220.963,310.779 221.629,308.112 222.5,305.5C 222.833,305.5 223.167,305.5 223.5,305.5C 223.5,306.833 223.5,308.167 223.5,309.5C 223.5,310.167 223.5,310.833 223.5,311.5C 237.657,312.496 251.99,312.829 266.5,312.5C 266.149,308.841 267.149,305.841 269.5,303.5 Z"/></g>
<g><path style="opacity:1" fill="#fd5164" d="M 223.5,309.5 C 236.898,309.671 250.231,309.671 263.5,309.5C 264.308,309.808 264.975,310.308 265.5,311C 251.504,311.5 237.504,311.667 223.5,311.5C 223.5,310.833 223.5,310.167 223.5,309.5 Z"/></g>
<g><path style="opacity:1" fill="#730052" d="M 114.5,314.5 C 114.5,314.167 114.5,313.833 114.5,313.5C 128.167,313.5 141.833,313.5 155.5,313.5C 155.5,314.5 155.5,315.5 155.5,316.5C 156.978,316.238 158.311,316.571 159.5,317.5C 155.801,318.101 152.134,318.435 148.5,318.5C 148.167,318.167 147.833,317.833 147.5,317.5C 149.167,316.833 150.833,316.167 152.5,315.5C 139.851,314.501 127.184,314.168 114.5,314.5 Z"/></g>
<g><path style="opacity:1" fill="#77004f" d="M 222.5,305.5 C 221.629,308.112 220.963,310.779 220.5,313.5C 235.5,313.5 250.5,313.5 265.5,313.5C 250.98,314.198 236.314,314.865 221.5,315.5C 219.053,315.099 218.053,313.599 218.5,311C 218.142,307.867 219.475,306.033 222.5,305.5 Z"/></g>
</svg>
