<svg version="1.1" id="Layer_1" xmlns="http://www.w3.org/2000/svg" xmlns:xlink="http://www.w3.org/1999/xlink" x="0px" y="0px"
	 width="100%" viewBox="0 0 364 364" enable-background="new 0 0 364 364" xml:space="preserve">
<path fill="#0CD3A6" opacity="1.000000" stroke="none" 
	d="
M165.000000,0.999998 
	C192.687561,1.000000 220.375122,1.000000 248.310791,1.398801 
	C249.407364,2.195276 250.236084,2.884836 251.107513,2.943870 
	C257.366486,3.367886 263.675629,3.342542 269.880493,4.143873 
	C272.735504,4.512586 275.678436,6.025702 278.053894,7.747718 
	C280.247559,9.337952 281.731110,11.905150 283.535858,14.034885 
	C291.291138,23.186462 299.095978,32.296570 306.793793,41.496208 
	C314.473541,50.674225 321.997864,59.982281 329.681305,69.157135 
	C337.276764,78.226913 344.670410,87.496941 352.748230,96.121231 
	C358.862366,102.649033 358.781342,109.644653 356.841949,117.438461 
	C354.134674,128.318039 351.520264,139.223648 349.071289,150.164032 
	C342.679016,178.720596 336.370605,207.296051 330.082977,235.875916 
	C325.994751,254.458633 322.026489,273.067749 317.942810,291.651489 
	C317.217651,294.951447 316.695557,298.396729 312.670502,299.739899 
	C303.739380,302.720245 294.866058,305.873688 285.968567,308.954803 
	C255.114838,319.639313 224.262894,330.329041 193.406235,341.005035 
	C172.529648,348.228027 151.639847,355.413025 130.784531,362.696808 
	C129.718262,363.069183 128.921982,364.214508 128.000000,365.000000 
	C119.979103,365.000000 111.958199,365.000000 103.809433,364.783295 
	C92.126823,351.886597 80.587646,339.192413 69.012917,326.530701 
	C57.880344,314.352692 46.706791,302.212128 35.558971,290.048004 
	C24.638933,278.132446 13.735897,266.201294 2.778803,254.319931 
	C2.453149,253.966797 1.604701,254.095795 1.000000,254.000000 
	C1.000000,251.299988 1.000000,248.599976 1.216875,245.790558 
	C2.668446,244.576935 3.976102,243.543549 5.127004,242.358002 
	C26.362770,220.482849 47.515499,198.526642 68.825943,176.724594 
	C80.822922,164.450851 93.099487,152.450775 105.184296,140.262161 
	C107.201736,138.227417 109.451057,136.121033 110.615211,133.596710 
	C114.563194,125.035973 118.118576,116.292099 121.740646,107.583549 
	C134.227158,77.562263 146.719559,47.543270 159.105011,17.480267 
	C161.324951,12.091874 163.047699,6.498650 165.000000,0.999998 
M249.934937,75.643814 
	C248.294983,73.786118 246.300934,72.132408 245.088821,70.028252 
	C242.567566,65.651497 238.624619,64.322899 234.043304,64.009216 
	C226.214508,63.473167 218.382263,62.987694 210.368164,62.469124 
	C204.503815,76.450760 198.539902,90.664734 192.580048,104.880402 
	C185.041519,122.861549 177.571274,140.871765 169.931488,158.809769 
	C167.525665,164.458527 165.716431,170.833740 161.815903,175.282150 
	C151.431091,187.125656 140.102051,198.145905 129.060608,209.407379 
	C121.132401,217.493576 112.976791,225.357559 105.085526,233.478958 
	C99.528717,239.197830 94.245453,245.182495 88.539757,251.374359 
	C96.399971,259.799866 104.112450,267.950928 111.686821,276.228363 
	C116.461906,281.446686 121.232819,286.694397 125.608170,292.242371 
	C127.872520,295.113525 130.045670,294.620636 132.783264,293.666199 
	C148.866409,288.059143 164.973251,282.520111 181.066467,276.941895 
	C206.986343,267.957550 232.918289,259.007202 258.781006,249.861084 
	C260.456299,249.268616 262.369873,247.344086 262.830292,245.670029 
	C264.810730,238.469589 266.317322,231.137375 267.946320,223.841934 
	C274.887634,192.755508 281.852325,161.674103 288.667023,130.559875 
	C289.245056,127.920692 289.955383,124.098511 288.611816,122.439041 
	C276.011078,106.875488 262.975708,91.663826 249.934937,75.643814 
z"/>
<path fill="#FFFFFF" opacity="1.000000" stroke="none" 
	d="
M164.531342,0.999998 
	C163.047699,6.498650 161.324951,12.091874 159.105011,17.480267 
	C146.719559,47.543270 134.227158,77.562263 121.740646,107.583549 
	C118.118576,116.292099 114.563194,125.035973 110.615211,133.596710 
	C109.451057,136.121033 107.201736,138.227417 105.184296,140.262161 
	C93.099487,152.450775 80.822922,164.450851 68.825943,176.724594 
	C47.515499,198.526642 26.362770,220.482849 5.127004,242.358002 
	C3.976102,243.543549 2.668446,244.576935 1.216875,245.340576 
	C1.000000,163.753952 1.000000,82.507904 1.000000,1.000000 
	C55.353947,1.000000 109.708313,1.000000 164.531342,0.999998 
z"/>
<path fill="#FFFFFF" opacity="1.000000" stroke="none" 
	d="
M128.468658,365.000000 
	C128.921982,364.214508 129.718262,363.069183 130.784531,362.696808 
	C151.639847,355.413025 172.529648,348.228027 193.406235,341.005035 
	C224.262894,330.329041 255.114838,319.639313 285.968567,308.954803 
	C294.866058,305.873688 303.739380,302.720245 312.670502,299.739899 
	C316.695557,298.396729 317.217651,294.951447 317.942810,291.651489 
	C322.026489,273.067749 325.994751,254.458633 330.082977,235.875916 
	C336.370605,207.296051 342.679016,178.720596 349.071289,150.164032 
	C351.520264,139.223648 354.134674,128.318039 356.841949,117.438461 
	C358.781342,109.644653 358.862366,102.649033 352.748230,96.121231 
	C344.670410,87.496941 337.276764,78.226913 329.681305,69.157135 
	C321.997864,59.982281 314.473541,50.674225 306.793793,41.496208 
	C299.095978,32.296570 291.291138,23.186462 283.535858,14.034885 
	C281.731110,11.905150 280.247559,9.337952 278.053894,7.747718 
	C275.678436,6.025702 272.735504,4.512586 269.880493,4.143873 
	C263.675629,3.342542 257.366486,3.367886 251.107513,2.943870 
	C250.236084,2.884836 249.407364,2.195276 248.779449,1.398801 
	C287.643066,1.000000 326.286133,1.000000 364.964600,1.000000 
	C364.964600,122.235657 364.964600,243.471329 364.964600,365.000000 
	C286.312683,365.000000 207.625000,365.000000 128.468658,365.000000 
z"/>
<path fill="#FFFFFF" opacity="1.000000" stroke="none" 
	d="
M1.000000,254.468658 
	C1.604701,254.095795 2.453149,253.966797 2.778803,254.319931 
	C13.735897,266.201294 24.638933,278.132446 35.558971,290.048004 
	C46.706791,302.212128 57.880344,314.352692 69.012917,326.530701 
	C80.587646,339.192413 92.126823,351.886597 103.340775,364.783295 
	C69.069969,365.000000 35.139938,365.000000 1.000000,365.000000 
	C1.000000,328.312714 1.000000,291.625000 1.000000,254.468658 
z"/>
<path fill="#FFFFFF" opacity="1.000000" stroke="none" 
	d="
M250.000458,75.997131 
	C262.975708,91.663826 276.011078,106.875488 288.611816,122.439041 
	C289.955383,124.098511 289.245056,127.920692 288.667023,130.559875 
	C281.852325,161.674103 274.887634,192.755508 267.946320,223.841934 
	C266.317322,231.137375 264.810730,238.469589 262.830292,245.670029 
	C262.369873,247.344086 260.456299,249.268616 258.781006,249.861084 
	C232.918289,259.007202 206.986343,267.957550 181.066467,276.941895 
	C164.973251,282.520111 148.866409,288.059143 132.783264,293.666199 
	C130.045670,294.620636 127.872520,295.113525 125.608170,292.242371 
	C121.232819,286.694397 116.461906,281.446686 111.686821,276.228363 
	C104.112450,267.950928 96.399971,259.799866 88.539757,251.374359 
	C94.245453,245.182495 99.528717,239.197830 105.085526,233.478958 
	C112.976791,225.357559 121.132401,217.493576 129.060608,209.407379 
	C140.102051,198.145905 151.431091,187.125656 161.815903,175.282150 
	C165.716431,170.833740 167.525665,164.458527 169.931488,158.809769 
	C177.571274,140.871765 185.041519,122.861549 192.580048,104.880402 
	C198.539902,90.664734 204.503815,76.450760 210.368164,62.469124 
	C218.382263,62.987694 226.214508,63.473167 234.043304,64.009216 
	C238.624619,64.322899 242.567566,65.651497 245.088821,70.028252 
	C246.300934,72.132408 248.294983,73.786118 250.000458,75.997131 
z"/>
</svg>